<svg xmlns="http://www.w3.org/2000/svg" width="0" height="0" style="position:absolute"><symbol viewBox="-5 -5 42.16 42.16" id="circle-minus"><path d="M16.082 2.201c7.652 0 13.879 6.227 13.879 13.88S23.734 29.96 16.082 29.96c-7.653 0-13.881-6.226-13.881-13.879s6.228-13.88 13.881-13.88m0-2.201C7.201 0 0 7.199 0 16.081c0 8.881 7.201 16.08 16.082 16.08s16.08-7.199 16.08-16.08C32.162 7.199 24.963 0 16.082 0" fill="#565655" style="fill: var(--custom-color-0,#565655)"/><path d="M24.959 17.181H7.205a1.101 1.101 0 1 1 0-2.202h17.754a1.101 1.101 0 0 1 0 2.202" fill="#565655" style="fill: var(--custom-color-1,#565655)"/></symbol><symbol viewBox="-5 -5 42.16 42.16" id="circle-plus"><path d="M16.08 2.201c7.653 0 13.881 6.227 13.881 13.88S23.733 29.959 16.08 29.959c-7.652 0-13.879-6.226-13.879-13.879S8.428 2.201 16.08 2.201m0-2.201C7.199 0 0 7.199 0 16.081c0 8.881 7.199 16.08 16.08 16.08 8.882 0 16.081-7.199 16.081-16.08C32.161 7.199 24.962 0 16.08 0" fill="#565655" style="fill: var(--custom-color-0,#565655)"/><path d="M24.958 14.98h-7.777V7.203a1.101 1.101 0 0 0-2.201 0v7.777H7.203a1.102 1.102 0 1 0 0 2.202h7.777v7.776a1.1 1.1 0 1 0 2.201 0v-7.776h7.777a1.1 1.1 0 1 0 0-2.202" fill="#565655" style="fill: var(--custom-color-1,#565655)"/></symbol><symbol viewBox="-5 -5 43.11 42.98" id="home"><path d="M32.823 16.536L17.339.318a1.029 1.029 0 0 0-1.487 0L.288 16.536a1.03 1.03 0 1 0 1.488 1.428l1.387-1.445v15.434c0 .57.462 1.032 1.031 1.032H11.4c.568 0 1.03-.46 1.031-1.029l.033-10.303h8.219v10.3c0 .57.461 1.032 1.031 1.032h7.203c.571 0 1.032-.462 1.032-1.032v-15.44l1.385 1.452a1.03 1.03 0 0 0 1.489-1.429m-4.937-1.887V30.92h-5.14v-10.3c0-.57-.461-1.032-1.032-1.032H11.436c-.568 0-1.029.46-1.031 1.029l-.033 10.303H5.226V14.649c0-.082-.029-.154-.047-.231L16.596 2.522l11.339 11.882c-.02.08-.049.158-.049.245" fill-rule="evenodd" clip-rule="evenodd" fill="#333" style="fill: var(--custom-color-0,#333)"/></symbol></svg>